<svg width="70" height="43" viewBox="0 0 70 43" fill="none" xmlns="http://www.w3.org/2000/svg">
<path d="M43.1109 29.9452C64.168 29.9452 65.8643 12.0306 66 3.51725C66.0012 3.28566 65.956 3.05618 65.867 2.84239C65.7779 2.6286 65.6469 2.43483 65.4817 2.27256C65.3165 2.11029 65.1204 1.98281 64.905 1.89767C64.6897 1.81253 64.4594 1.77145 64.2279 1.77687C34.3033 2.32646 34.3033 16.8343 34.3033 29.9452V36.9913" stroke="#3C64B1" stroke-width="3" stroke-linecap="round" stroke-linejoin="round"/>
<path d="M34.3033 29.9452C34.3033 29.9452 34.3033 19.3762 48.3954 17.6146" stroke="#3C64B1" stroke-width="3" stroke-linecap="round" stroke-linejoin="round"/>
<path d="M25.4852 29.9452C4.42813 29.9452 2.73179 12.0306 2.59616 3.51725C2.59491 3.28566 2.64014 3.05618 2.72915 2.84239C2.81817 2.6286 2.94917 2.43483 3.1144 2.27256C3.27963 2.11029 3.47572 1.98281 3.69109 1.89767C3.90646 1.81253 4.13671 1.77145 4.36823 1.77687C34.2928 2.32646 34.2928 16.8343 34.2928 29.9452V36.9913" stroke="#3C64B1" stroke-width="3" stroke-linecap="round" stroke-linejoin="round"/>
<path d="M34.2928 29.9452C34.2928 29.9452 34.2928 19.3762 20.2007 17.6146" stroke="#3C64B1" stroke-width="3" stroke-linecap="round" stroke-linejoin="round"/>
</svg>
